# xmcd CD database file
#
# Track frame offsets:
#	150
#	26553
#	47207
#	73393
#	84501
#	96429
#	113871
#	132203
#	152247
#	164424
#	186774
#	197244
#	220513
#	253378
#
# Disc length: 3524 seconds
#
# Revision: 0
# Processed by: cddbd v1.5.2PL0 Copyright (c) Steve Scherf et al.
# Submitted via: CDex 1.51
#
DISCID=d10dc20e
DTITLE=Steve Gibons Gypsy Rhythm Project - Beat Nomad
DYEAR=2009
DGENRE=Jazz
TTITLE0=Sofia-istanbul Express
TTITLE1=Mugur, Mugurel, Nature Boy
TTITLE2=Karsilamas
TTITLE3=Doina de Jale
TTITLE4=Manea
TTITLE5=Avant de Mourir
TTITLE6=Taqsim, Ravelnikov
TTITLE7=Bride In a Red Dress
TTITLE8=Cimpoi Suite I
TTITLE9=Cimpoi Suite II
TTITLE10=Cimpoi Suite III
TTITLE11=Saraiman
TTITLE12=Ioane, Ioane, Summertime
TTITLE13=Geampara
EXTD=YEAR: 2009
EXTT0=
EXTT1=
EXTT2=
EXTT3=
EXTT4=
EXTT5=
EXTT6=
EXTT7=
EXTT8=
EXTT9=
EXTT10=
EXTT11=
EXTT12=
EXTT13=
PLAYORDER=
